<?xml version="1.0" encoding="utf-8" standalone="no"?><!DOCTYPE svg PUBLIC "-//W3C//DTD SVG 20010904//EN" "http://www.w3.org/TR/2001/REC-SVG-20010904/DTD/svg10.dtd"><svg xmlns="http://www.w3.org/2000/svg" width="433" height="363" xmlns:xlink="http://www.w3.org/1999/xlink"><source><![CDATA[Andrew->China: Says Hello
Note right of China: China thinks\nabout it
China-->Andrew: How are you?
Andrew->>China: I am good thanks!
China->A:????
]]></source><desc></desc><defs><marker viewBox="0 0 5 5" markerWidth="5" markerHeight="5" orient="auto" refX="5" refY="2.5" id="markerArrowBlock"><path d="M 0 0 L 5 2.5 L 0 5 z"></path></marker><marker viewBox="0 0 9.6 16" markerWidth="4" markerHeight="16" orient="auto" refX="9.6" refY="8" id="markerArrowOpen"><path d="M 9.6,8 1.92,16 0,13.7 5.76,8 0,2.286 1.92,0 9.6,8 z"></path></marker></defs><g class="title"></g><g class="actor"><path d="M10,20C78.3,23.6 85.5,16.4 99.9,20.0C98.4,29.6 101.3,41.7 99.9,57.0C25.4,60.6 75.8,53.4 10.0,57.0C11.5,48.5 8.5,48.1 10.0,20.0" stroke="#000000" fill="#ffffff" style="stroke-width: 2;"></path><text x="21" y="44" style="font-size: 16px; font-family: danielbd;"><tspan x="20">Andrew</tspan></text></g><g class="actor"><path d="M10,306.1875C62.0,309.8 67.6,302.6 99.9,306.2C101.3,329.8 98.4,322.1 99.9,343.2C49.5,339.6 37.3,346.8 10.0,343.2C11.5,314.5 8.5,327.2 10.0,306.2" stroke="#000000" fill="#ffffff" style="stroke-width: 2;"></path><text x="21" y="330.1875" style="font-size: 16px; font-family: danielbd;"><tspan x="20">Andrew</tspan></text></g><path d="M54.9,57.0C64.9,251.8 45.0,96.9 54.9,306.2" stroke="#000000" fill="none" style="stroke-width: 2;"></path><g class="actor"><path d="M193.6796875,20C246.0,17.2 236.2,22.8 262.8,20.0C261.3,33.7 264.3,42.6 262.8,57.0C245.5,59.8 251.7,54.2 193.7,57.0C192.2,34.8 195.2,51.1 193.7,20.0" stroke="#000000" fill="#ffffff" style="stroke-width: 2;"></path><text x="203.6796875" y="44" style="font-size: 16px; font-family: danielbd;"><tspan x="203.6796875">China</tspan></text></g><g class="actor"><path d="M193.6796875,306.1875C246.2,309.0 251.7,303.4 262.8,306.2C264.3,337.3 261.3,312.1 262.8,343.2C243.5,346.0 204.7,340.4 193.7,343.2C192.2,320.1 195.2,325.9 193.7,306.2" stroke="#000000" fill="#ffffff" style="stroke-width: 2;"></path><text x="203.6796875" y="330.1875" style="font-size: 16px; font-family: danielbd;"><tspan x="203.6796875">China</tspan></text></g><path d="M228.2,57.0C218.3,116.8 238.2,207.4 228.2,306.2" stroke="#000000" fill="none" style="stroke-width: 2;"></path><g class="actor"><path d="M369,20C374.5,21.4 392.1,18.6 403.1,20.0C404.6,39.9 401.6,46.8 403.1,57.0C374.5,55.6 397.6,58.4 369.0,57.0C370.5,30.1 367.5,48.5 369.0,20.0" stroke="#000000" fill="#ffffff" style="stroke-width: 2;"></path><text x="380" y="44" style="font-size: 16px; font-family: danielbd;"><tspan x="379">A</tspan></text></g><g class="actor"><path d="M369,306.1875C394.9,304.8 377.2,307.6 403.1,306.2C404.6,331.3 401.6,334.2 403.1,343.2C380.5,341.8 379.5,344.6 369.0,343.2C367.5,331.3 370.5,333.8 369.0,306.2" stroke="#000000" fill="#ffffff" style="stroke-width: 2;"></path><text x="380" y="330.1875" style="font-size: 16px; font-family: danielbd;"><tspan x="379">A</tspan></text></g><path d="M386.0,57.0C376.1,227.1 396.0,241.7 386.0,306.2" stroke="#000000" fill="none" style="stroke-width: 2;"></path><g class="signal"><text x="99.5" y="85" style="font-size: 16px; font-family: danielbd;"><tspan x="98.5">Says Hello</tspan></text><path d="M54.9,99.0C194.7,92.1 167.4,105.9 228.2,99.0" stroke="#000000" fill="none" style="stroke-width: 2; marker-end: url(&quot;#markerArrowBlock&quot;);"></path></g><g class="note"><path d="M248.2421875,119C281.4,123.7 293.6,114.3 366.0,119.0C367.9,143.0 364.2,150.5 366.0,165.2C274.1,160.5 315.2,169.9 248.2,165.2C250.1,154.1 246.4,143.5 248.2,119.0" stroke="#000000" fill="#ffffff" style="stroke-width: 2;"></path><text x="253.2421875" y="138" style="font-size: 16px; font-family: danielbd;"><tspan x="253.2421875">China thinks</tspan><tspan dy="1.2em" x="253.2421875">about it</tspan></text></g><g class="signal"><text x="81.5546875" y="193.1875" style="font-size: 16px; font-family: danielbd;"><tspan x="81.5546875">How are you?</tspan></text><path d="M228.2,207.2C120.4,200.3 160.1,214.1 54.9,207.2" stroke="#000000" fill="none" style="stroke-width: 2; stroke-dasharray: 6, 2; marker-end: url(&quot;#markerArrowBlock&quot;);"></path></g><g class="signal"><text x="64.9296875" y="235.1875" style="font-size: 16px; font-family: danielbd;"><tspan x="64.9296875">I am good thanks!</tspan></text><path d="M54.9,249.2C145.4,256.1 157.7,242.3 228.2,249.2" stroke="#000000" fill="none" style="stroke-width: 2; marker-end: url(&quot;#markerArrowOpen&quot;);"></path></g><g class="signal"><text x="287.6796875" y="279.6875" style="font-size: 16px; font-family: danielbd;"><tspan x="287.6796875">????</tspan></text><path d="M228.2,286.2C325.3,292.5 266.1,279.9 386.0,286.2" stroke="#000000" fill="none" style="stroke-width: 2; marker-end: url(&quot;#markerArrowBlock&quot;);"></path></g></svg>